<svg xmlns="http://www.w3.org/2000/svg"  viewBox="0 0 48 48" width="50px" height="50px" baseProfile="basic"><path fill="#38b47b" d="M43.498,22.766c-0.147,3.235-0.098,7.009-0.129,10.248c-0.023,2.44-0.097,5.045-1.491,7.047	c-1.001,1.438-2.596,2.39-4.281,2.869c-1.685,0.48-3.465,0.522-5.214,0.422c-3.714-0.165-8.885-0.147-12.598,0.039	c-2.569,0.129-5.175,0.339-7.69-0.201c-2.515-0.54-4.983-1.97-6.086-4.294c-0.644-1.357-0.774-2.894-0.866-4.393	c-0.178-2.91-0.538-8.823-0.506-11.738c0.136-1.365,0.579-3.856,0.449-5.222c-0.183-1.914-0.627-3.833-0.371-5.739	C4.969,9.9,6.252,7.913,7.709,6.663c1.989-1.868,5.224-2.527,7.952-2.471s5.462,0.545,8.172,0.224	c0.789-0.093,1.568-0.255,2.353-0.374c1.087-0.165,2.185-0.248,3.283-0.294c2.607-0.109,5.267,0.002,7.736,0.845	s4.749,2.495,5.894,4.84c1.233,2.523,1.032,5.48,0.803,8.279C43.781,19.219,43.567,21.255,43.498,22.766z"/><path fill="#010101" d="M43.165,8.515c-2.568-4.179-7.741-5.327-12.312-5.3c-1.363,0.008-2.731,0.077-4.084,0.248	c-1.382,0.174-2.738,0.489-4.134,0.547c-2.671,0.11-5.325-0.424-7.995-0.304C12.511,3.8,10.282,4.276,8.469,5.446	c-1.858,1.198-3.394,3.146-4.028,5.27c-0.756,2.531,0.21,5.021,0.166,7.566c-0.033,1.892-0.494,3.737-0.467,5.631	c0.029,2.003,0.129,4.004,0.235,6.004c0.105,1.976,0.164,3.971,0.372,5.939c0.248,2.349,1.073,4.409,2.972,5.889	c1.769,1.378,3.949,2.008,6.155,2.211c2.584,0.238,5.19-0.058,7.775-0.141c2.418-0.078,4.839-0.095,7.259-0.061	c4.458,0.064,9.979,0.909,13.129-3.079c1.438-1.822,1.74-4.182,1.809-6.432c0.079-2.573,0.025-5.151,0.054-7.724	c0.014-1.252,0.042-2.503,0.097-3.753c0.117-2.414,0.449-4.813,0.552-7.228C44.653,13.134,44.455,10.612,43.165,8.515z M42.583,36.969c-0.442,2.24-1.703,3.987-3.779,4.979c-2.247,1.074-4.727,0.964-7.147,0.875c-4.4-0.161-8.804-0.086-13.201,0.138	c-4.191,0.214-9.913,0.135-12.017-4.317c-0.893-1.89-0.802-4.168-0.922-6.216c-0.114-1.93-0.219-3.861-0.297-5.794	c-0.067-1.681-0.162-3.356,0.056-5.027c0.126-0.966,0.263-1.934,0.314-2.908c0.059-1.115-0.132-2.209-0.271-3.312	c-0.159-1.257-0.31-2.578-0.059-3.833c0.217-1.091,0.738-2.114,1.39-3.008c1.304-1.789,3.131-2.929,5.266-3.457	c2.272-0.561,4.566-0.386,6.875-0.213c1.279,0.096,2.562,0.185,3.844,0.133c1.285-0.053,2.531-0.318,3.8-0.501	c2.495-0.361,5.137-0.441,7.64-0.119c2.252,0.29,4.509,1.032,6.295,2.474c1.802,1.456,2.84,3.452,3.108,5.747	c0.266,2.282-0.027,4.61-0.232,6.886c-0.098,1.089-0.196,2.178-0.249,3.27c-0.107,2.427-0.11,4.856-0.116,7.285	C42.877,32.334,43.027,34.717,42.583,36.969z"/><path fill="#d6e5e5" d="M27.437,10.513c-0.782,0.008-1.799-0.038-2.281,0.633c-0.308,0.429-0.307,1-0.296,1.528	c0.109,5.124,0.046,10.251-0.017,15.376c-0.024,1.925,0.153,3.652-0.036,5.568c-0.106,1.079-0.264,2.165-0.135,3.241	c0.017,0.143,0.043,0.293,0.137,0.402c0.141,0.162,0.383,0.178,0.598,0.181c1.265,0.017,2.23,0.001,3.494-0.046	c0.252-0.009,0.533-0.033,0.699-0.222c0.119-0.135,0.15-0.325,0.168-0.504c0.118-1.188-0.132-2.378-0.267-3.564	c-0.15-1.316-0.061-2.444-0.069-3.769c-0.037-5.649-0.046-11.298-0.026-16.947c0.001-0.327,0.001-0.663-0.116-0.969	c-0.117-0.306-0.378-0.579-0.704-0.611C28.261,10.778,27.734,10.51,27.437,10.513z"/><path fill="#010101" d="M29.979,32.875c-0.104-1.1-0.046-2.204-0.045-3.307c0.003-2.362-0.026-4.724-0.031-7.085	c-0.007-2.7-0.007-5.4-0.001-8.1c0.002-0.664,0.009-1.329,0.006-1.994c-0.003-0.496-0.025-1.009-0.301-1.439	c-0.234-0.365-0.547-0.529-0.952-0.633c-0.335-0.087-0.663-0.198-1.002-0.26c-0.062-0.028-0.133-0.045-0.215-0.044	c-0.755,0.005-1.597-0.017-2.25,0.424c-0.752,0.509-0.838,1.403-0.827,2.237c0.031,2.397,0.064,4.794,0.058,7.192	c-0.007,2.397-0.033,4.795-0.062,7.192c-0.027,2.261,0.157,4.538-0.071,6.791c-0.105,1.04-0.303,2.177-0.083,3.215	c0.201,0.946,1.108,0.881,1.89,0.884c1.001,0.004,2.046,0.048,3.041-0.07c0.949-0.113,1.144-0.832,1.166-1.684	C30.327,35.078,30.083,33.981,29.979,32.875z M28.903,36.896c-0.455,0.118-1.067,0.036-1.538,0.044	c-0.424,0.007-0.848,0.01-1.273,0.008c-0.213-0.001-0.475,0.034-0.684-0.006c-0.291-0.055-0.21,0.019-0.259-0.314	c-0.133-0.904,0.045-1.877,0.135-2.779c0.194-1.932,0.043-3.863,0.059-5.799c0.016-1.984,0.049-3.968,0.063-5.952	c0.016-2.232,0.02-4.464-0.004-6.696c-0.011-1.093-0.142-2.243-0.035-3.33c0.111-1.13,1.189-1.053,2.069-1.059	c0.3,0.026,0.597,0.18,0.886,0.257c0.506,0.135,0.561,0.416,0.583,0.922c0.047,1.058-0.005,2.129-0.007,3.188	c-0.003,1.994-0.003,3.987,0,5.981c0.004,1.994,0.011,3.987,0.021,5.981c0.01,1.908-0.127,3.864,0.081,5.763	c0.095,0.871,0.262,1.736,0.292,2.614C29.311,36.195,29.435,36.758,28.903,36.896z"/><path fill="#d6e5e5" d="M33.772,17.631c-0.65,0.277-1.469,0.039-1.903,0.597c-0.295,0.38-0.292,0.905-0.274,1.386	c0.195,5.211,0.507,10.429,0.232,15.636c-0.034,0.654-0.035,1.413,0.471,1.828c0.35,0.288,0.84,0.314,1.294,0.328	c0.511,0.015,1.023,0.03,1.534,0.045c0.153,0.005,0.319,0.006,0.444-0.083c0.121-0.086,0.176-0.235,0.216-0.378	c0.282-1.015,0.114-2.092,0.022-3.142c-0.418-4.767,0.777-9.581,0.218-14.333c-0.065-0.553-0.171-1.139-0.551-1.546	C35.095,17.563,34.284,17.413,33.772,17.631z"/><path fill="#010101" d="M36.571,25.241c0.125-1.964,0.193-3.954-0.068-5.911c-0.094-0.703-0.285-1.456-0.889-1.897	c-0.555-0.405-1.33-0.506-1.975-0.284c-0.575,0.206-1.238,0.107-1.776,0.428c-0.589,0.351-0.757,1.032-0.774,1.67	c-0.048,1.808,0.141,3.647,0.209,5.455c0.07,1.861,0.126,3.723,0.136,5.586c0.005,0.91-0.002,1.82-0.023,2.73	c-0.021,0.922-0.129,1.861-0.095,2.782c0.021,0.57,0.142,1.159,0.565,1.572c0.518,0.505,1.251,0.52,1.929,0.542	c0.577,0.018,1.487,0.227,2.011-0.112c0.571-0.37,0.6-1.321,0.618-1.917c0.025-0.839-0.113-1.676-0.168-2.512	c-0.058-0.874-0.064-1.751-0.042-2.627C36.276,28.906,36.454,27.075,36.571,25.241z M35.586,25.002	c-0.174,2.865-0.515,5.736-0.297,8.608c0.049,0.645,0.139,1.288,0.151,1.935c0.006,0.339,0.03,0.772-0.082,1.094	c-0.148,0.425-0.479,0.305-0.889,0.293c-0.52-0.015-1.296,0.098-1.76-0.177c-0.574-0.341-0.389-1.329-0.363-1.876	c0.141-2.976,0.096-5.958-0.003-8.935c-0.055-1.655-0.128-3.31-0.194-4.965c-0.026-0.65-0.242-1.625,0.018-2.244	c0.247-0.589,1.211-0.432,1.738-0.621c1.614-0.555,1.664,1.556,1.727,2.591C35.718,22.136,35.672,23.572,35.586,25.002z"/><path fill="#d6e5e5" d="M21.071,22.607c-0.871,0.074-1.837-0.038-2.246,0.691c-0.207,0.369-0.205,0.816-0.196,1.239	c0.076,3.813,0.207,7.998,0.283,11.811c0.005,0.232,0.015,0.481,0.156,0.665c0.126,0.165,0.331,0.245,0.528,0.309	c0.701,0.228,1.436,0.352,2.173,0.366c0.363,0.007,0.775-0.035,1.001-0.32c0.177-0.224,0.187-0.533,0.189-0.818	c0.023-3.929-0.009-8.228,0.014-12.157c0.002-0.369-0.001-0.76-0.193-1.075S21.439,22.575,21.071,22.607z"/><path fill="#010101" d="M23.467,32.84c0-1.5-0.003-3-0.004-4.5c0-0.857,0-1.715,0.003-2.572	c0.002-0.721,0.115-1.538-0.069-2.245c-0.238-0.915-1.445-1.419-2.325-1.416c-1.034,0.075-2.281,0.005-2.765,1.129	c-0.236,0.547-0.18,1.17-0.168,1.751c0.016,0.765,0.034,1.529,0.052,2.293c0.073,3.018,0.064,6.053,0.222,9.067	c0.025,0.471,0.101,0.913,0.511,1.206c0.501,0.357,1.238,0.46,1.831,0.547c0.982,0.143,2.383,0.253,2.655-0.986	c0.135-0.617,0.053-1.31,0.055-1.938C23.466,34.398,23.467,33.619,23.467,32.84z M22.465,34.713	c-0.001,0.537-0.002,1.073-0.006,1.61c-0.002,0.232,0.047,0.529-0.113,0.71c-0.172,0.195-0.441,0.158-0.688,0.151	c-0.546-0.017-1.085-0.104-1.612-0.25c-0.274-0.076-0.536-0.106-0.628-0.411c-0.074-0.245-0.015-0.593-0.021-0.852	c-0.049-2.291-0.112-4.582-0.17-6.873c-0.032-1.27-0.064-2.54-0.09-3.811c-0.011-0.518-0.164-1.376,0.373-1.681	c0.432-0.245,1.083-0.165,1.56-0.2c0.295-0.001,0.612,0.128,0.877,0.248c0.496,0.225,0.521,0.509,0.524,1.039	c0.005,1.119-0.008,2.238-0.009,3.357C22.463,30.071,22.47,32.392,22.465,34.713z"/><path fill="#d6e5e5" d="M14.638,29.85c-0.595,0.059-1.188,0.147-1.771,0.279c-0.169,0.038-0.349,0.086-0.463,0.216	c-0.148,0.168-0.143,0.418-0.129,0.642c0.112,1.834,0.224,3.668,0.336,5.502c0.009,0.142,0.019,0.29,0.091,0.412	c0.144,0.244,0.469,0.297,0.751,0.323c0.329,0.031,0.658,0.062,0.986,0.093c0.651,0.062,1.431,0.068,1.809-0.466	c0.172-0.243,0.218-0.551,0.244-0.847c0.107-1.198-0.024-2.402-0.093-3.602c-0.053-0.916-0.071-1.052-0.082-1.969	C16.312,30.024,16.091,29.707,14.638,29.85z"/><path fill="#010101" d="M16.992,33.845c-0.048-0.823-0.115-1.644-0.152-2.467c-0.024-0.537,0.113-1.255-0.302-1.682	c-0.464-0.478-1.304-0.399-1.901-0.345c-0.456,0.047-0.912,0.105-1.363,0.187c-0.4,0.073-0.881,0.123-1.187,0.42	c-0.284,0.276-0.33,0.652-0.314,1.029c0.023,0.521,0.064,1.041,0.095,1.562c0.062,1.016,0.124,2.032,0.186,3.049	c0.048,0.79-0.048,1.767,0.882,2.044c0.364,0.109,0.774,0.108,1.149,0.143c0.401,0.038,0.802,0.085,1.204,0.046	c0.767-0.075,1.412-0.471,1.616-1.249C17.134,35.718,17.044,34.726,16.992,33.845z M15.666,36.715	c-0.46,0.267-1.152,0.111-1.65,0.063c-0.192-0.018-0.677,0.021-0.84-0.112c-0.157-0.128-0.095-0.645-0.108-0.846	c-0.047-0.768-0.094-1.537-0.141-2.305c-0.052-0.842-0.117-1.685-0.155-2.528c-0.007-0.146-0.041-0.263,0.073-0.336	c0.13-0.083,0.407-0.096,0.558-0.125c0.408-0.078,0.82-0.134,1.233-0.177c0.281-0.026,0.569-0.052,0.852-0.028	c0.072,0.006,0.138,0.013,0.208,0.029c0.051,0.012,0.08,0.021,0.098,0.027c0.001,0.005,0.005,0.01,0.011,0.005	c0,0,0.001,0.001,0.002,0.001c0,0-0.001-0.001-0.002-0.001c0.003-0.003,0.006-0.01,0.007-0.027c0,0.01,0.001,0.02,0.001,0.031	c0,0,0.003,0.001,0.003,0.001c0.019-0.001-0.028-0.026,0.004,0.006c-0.004-0.004-0.004-0.003-0.007-0.005	c-0.004,0.242,0.009,0.488,0.017,0.73c0.041,1.294,0.2,2.584,0.202,3.88C16.034,35.464,16.151,36.434,15.666,36.715z"/></svg>